<mxfile host="app.diagrams.net" modified="2024-10-27T16:04:19.025Z" agent="Mozilla/5.0 (Macintosh; Intel Mac OS X 10_15_7) AppleWebKit/537.36 (KHTML, like Gecko) Chrome/130.0.0.0 Safari/537.36" version="24.5.2" etag="uZyA1XUFcrS-5nQ-b_Ej" type="github">
  <diagram name="Page-1" id="T2Mfwss_seZ9xRW9qNp0">
    <mxGraphModel>
      <root>
        <mxCell id="0" />
        <mxCell id="1" parent="0" />
      </root>
    </mxGraphModel>
  </diagram>
</mxfile>
